<svg id="Logo" xmlns="http://www.w3.org/2000/svg" viewBox="0 0 736.78 453.54"><defs><style>.cls-1{fill:#fff;}</style></defs><title>Tekengebied 1</title><polygon class="cls-1" points="424.95 259.71 481.64 259.71 481.64 203.02 425.19 203.02 424.95 259.71"/><rect class="cls-1" x="424.95" y="89.63" width="56.69" height="56.69"/><path class="cls-1" d="M282.51,88.21a85.75,85.75,0,0,0,0,171.5h85.75V174A85.75,85.75,0,0,0,282.51,88.21Zm28.58,114.33H282.51A28.58,28.58,0,1,1,311.09,174Z"/><path class="cls-1" d="M84.64,352.43H77.41a1.3,1.3,0,0,1-1.29-1.3v-1a14.22,14.22,0,0,1-9,2.91c-5.61,0-11-2.71-11-11.1v-.58c0-7.55,4.84-10.91,15.87-10.91h3.48V328.1c0-3.68-1.8-4.46-4.84-4.46-4.13,0-8.71.26-10.71.46H59.6a1.05,1.05,0,0,1-1.16-1.17v-5.22a1.44,1.44,0,0,1,1.22-1.42,52.05,52.05,0,0,1,11.17-1.36c9.29,0,15.1,3.75,15.1,13.17v23A1.3,1.3,0,0,1,84.64,352.43Zm-9-15.81H72c-4.52,0-5.68,1.54-5.68,4.71v.58c0,2.71,1.36,3.22,4.07,3.22a11.89,11.89,0,0,0,5.29-1.42Z"/><path class="cls-1" d="M114.25,323.58h-.51a17.42,17.42,0,0,0-8.33,2.26v25.23a1.35,1.35,0,0,1-1.29,1.36h-7.8A1.42,1.42,0,0,1,95,351.07V316.74a1.29,1.29,0,0,1,1.29-1.29h7.68a1.29,1.29,0,0,1,1.29,1.29V318a13.82,13.82,0,0,1,8.71-3.1,1.29,1.29,0,0,1,1.29,1.29v6.13C115.22,322.93,114.84,323.58,114.25,323.58Z"/><path class="cls-1" d="M142.81,352.49a28.2,28.2,0,0,1-5.1.52c-7.1,0-10.84-1.88-10.84-11V323.26l-5.16-.84a1.52,1.52,0,0,1-1.36-1.36V316.8a1.41,1.41,0,0,1,1.36-1.35h5.16v-5.29a1.39,1.39,0,0,1,1.29-1.29l7.87-1.36h.2a1.1,1.1,0,0,1,1.16,1.1v6.84h5.29a1.29,1.29,0,0,1,1.29,1.29V322a1.29,1.29,0,0,1-1.29,1.29h-5.29V342c0,2.58.19,3,2.13,3h3.16c.84,0,1.35.39,1.35,1.1v5A1.32,1.32,0,0,1,142.81,352.49Z"/><path class="cls-1" d="M181.14,337.2H160.55v.13c0,3.67,1.55,7,6.65,7,4.06,0,9.81-.32,12.39-.58h.19c.71,0,1.23.32,1.23,1v4.91c0,1-.26,1.48-1.36,1.74A49.37,49.37,0,0,1,166.42,353c-7.8,0-16.19-4.13-16.19-16.59V331.9c0-10.38,6.06-17,16.32-17,10.59,0,15.94,7.23,15.94,17v3.75C182.49,336.62,182,337.2,181.14,337.2Zm-8.84-6.72c0-4.77-2.2-7.16-5.81-7.16s-5.94,2.45-5.94,7.16v.26H172.3Z"/><path class="cls-1" d="M222,316.93l-8.14,29.3c-1.61,5.74-5.55,6.78-9.35,6.78s-7.68-1-9.29-6.78l-8.07-29.3a.74.74,0,0,1-.07-.38,1,1,0,0,1,1-1.1h8.52c.64,0,1.16.58,1.35,1.35l5.55,25.3c.19,1,.52,1.36,1,1.36s.84-.39,1-1.36l5.55-25.3c.19-.77.71-1.35,1.35-1.35H221a1.09,1.09,0,0,1,1.1,1.1A.84.84,0,0,1,222,316.93Z"/><path class="cls-1" d="M257.54,337.2H237v.13c0,3.67,1.55,7,6.65,7,4.06,0,9.81-.32,12.39-.58h.19c.71,0,1.23.32,1.23,1v4.91c0,1-.26,1.48-1.36,1.74A49.37,49.37,0,0,1,242.82,353c-7.8,0-16.19-4.13-16.19-16.59V331.9c0-10.38,6.06-17,16.32-17,10.59,0,15.94,7.23,15.94,17v3.75C258.89,336.62,258.38,337.2,257.54,337.2Zm-8.84-6.72c0-4.77-2.2-7.16-5.81-7.16s-5.94,2.45-5.94,7.16v.26H248.7Z"/><path class="cls-1" d="M276.12,352.43h-7.87a1.42,1.42,0,0,1-1.36-1.36V304.22a1.35,1.35,0,0,1,1.36-1.29h7.87a1.24,1.24,0,0,1,1.23,1.29v46.85A1.31,1.31,0,0,1,276.12,352.43Z"/><path class="cls-1" d="M315.1,351.33A60.88,60.88,0,0,1,301.35,353c-10.45,0-16.2-6.07-16.2-16.52v-5c0-10.13,5.29-16.52,16.2-16.52a46.69,46.69,0,0,1,5.29.45V304.22a1.29,1.29,0,0,1,1.29-1.29h7.81a1.35,1.35,0,0,1,1.36,1.29v45.24C317.1,350.49,316.84,350.94,315.1,351.33Zm-8.46-27.43a49.4,49.4,0,0,0-5.29-.32c-4.58,0-5.74,3.36-5.74,7.87v5c0,4.58,1.16,7.93,5.74,7.93a36.27,36.27,0,0,0,5.29-.38Z"/><path class="cls-1" d="M356.07,337.2H335.48v.13c0,3.67,1.55,7,6.65,7,4.07,0,9.81-.32,12.39-.58h.19c.71,0,1.23.32,1.23,1v4.91c0,1-.26,1.48-1.35,1.74A49.43,49.43,0,0,1,341.36,353c-7.81,0-16.2-4.13-16.2-16.59V331.9c0-10.38,6.07-17,16.33-17,10.58,0,15.93,7.23,15.93,17v3.75C357.42,336.62,356.91,337.2,356.07,337.2Zm-8.84-6.72c0-4.77-2.19-7.16-5.81-7.16s-5.94,2.45-5.94,7.16v.26h11.75Z"/><path class="cls-1" d="M395,352.43h-3.09a1.3,1.3,0,0,1-1.29-1.3V329.9c0-6.45-2.72-8.45-6.91-8.45a25,25,0,0,0-8.9,1.81v27.87a1.35,1.35,0,0,1-1.3,1.3h-3.16a1.29,1.29,0,0,1-1.22-1.3V305.19a1.24,1.24,0,0,1,1.22-1.29h3.23a1.24,1.24,0,0,1,1.23,1.29v13.29a27,27,0,0,1,9.87-2c6.84,0,11.61,3.94,11.61,13.42v21.23A1.3,1.3,0,0,1,395,352.43Z"/><path class="cls-1" d="M418,352.88c-9.48,0-14.32-6.26-14.32-15.75v-4.9c0-9.49,4.84-15.75,14.32-15.75s14.39,6.26,14.39,15.75v4.9C432.43,346.62,427.53,352.88,418,352.88Zm8.71-20.65c0-6.58-2.64-10.78-8.71-10.78s-8.64,4.13-8.64,10.78v4.9c0,6.58,2.58,10.78,8.64,10.78s8.71-4.13,8.71-10.78Z"/><path class="cls-1" d="M468.41,321.26l-2.32.45c1.16,1.22,2.19,3.16,2.19,6.65v.51c0,7.1-4.38,11-14.32,11a18.72,18.72,0,0,1-7.49-1.29,2.35,2.35,0,0,0-1.61,2.19c0,1.1.52,1.68,2,2.06l9.62,2.46c6.32,1.61,12.39,3.42,12.39,9.48v.52c0,6.19-4.13,10-14.72,10-10.19,0-14.84-3.94-14.84-10.26v-.58a10.45,10.45,0,0,1,4.07-8.19l-.45-.2a5.3,5.3,0,0,1-3-5V341a5.31,5.31,0,0,1,2.64-4.64,9.51,9.51,0,0,1-3-7.49v-.51c0-5.75,3.23-11.43,14.33-11.43h14.13a1.49,1.49,0,0,1,1.49,1.42V320C469.58,320.87,469.12,321.13,468.41,321.26Zm-5.22,33.55c0-2.51-2.07-3.55-7.87-5l-7.3-1.87a7.69,7.69,0,0,0-3.16,6.58v.58c0,3.61,2.13,5.87,9.29,5.87,7.36,0,9-2.06,9-5.61Zm-.52-26.45c0-3.88-1.74-6.91-8.71-6.91-7.23,0-8.71,3.29-8.71,6.91v.51c0,2.84,1.29,6.58,8.71,6.58,7,0,8.71-2.71,8.71-6.58Z"/><path class="cls-1" d="M502.42,336.49H480.8v.9c0,7.68,3,10.52,9,10.52a88.72,88.72,0,0,0,11.49-.71h.32a.91.91,0,0,1,1,.9v2.2c0,.83-.26,1.29-1.29,1.48a58.46,58.46,0,0,1-11.55,1.1c-7.42,0-14.65-3.49-14.65-15.49v-5.81c0-9.23,5.1-15.1,14.33-15.1,9.42,0,14.2,5.94,14.2,15.1v3.49A1.25,1.25,0,0,1,502.42,336.49Zm-4.52-4.91c0-7.29-2.77-10.13-8.45-10.13s-8.65,3.16-8.65,10.13v.58h17.1Z"/><path class="cls-1" d="M521.78,352.88a50.39,50.39,0,0,1-10.2-1c-.84-.19-1.35-.58-1.35-1.29v-2.26a1,1,0,0,1,1.16-1h.26c3.09.39,7.8.71,10.13.71,4.19,0,6.39-1.1,6.39-4.58,0-1.94-1.17-3.16-4.84-5.36l-6.52-3.87c-3.94-2.39-6.58-5.16-6.58-9.23,0-6.71,5-8.58,11.68-8.58a60,60,0,0,1,10.06.84c.84.13,1.23.58,1.23,1.29v2.13a1,1,0,0,1-1.1,1.1h-.19c-2.26-.2-6.39-.52-10-.52s-6,.45-6,3.74c0,1.94,1.48,3.17,4.45,4.91l6.39,3.81c5.35,3.16,7.09,5.93,7.09,9.74C533.84,350.1,529,352.88,521.78,352.88Z"/><path class="cls-1" d="M562.11,352.17a47.61,47.61,0,0,1-8.07.71c-8.77,0-13.74-6.2-13.74-15.68v-5c0-9.48,4.9-15.68,13.74-15.68a47.17,47.17,0,0,1,8.07.71c1,.2,1.29.52,1.29,1.42v2.32a1,1,0,0,1-1.1,1H562a63.43,63.43,0,0,0-8-.45c-5.16,0-8.07,3.42-8.07,10.71v5c0,7.22,2.84,10.71,8.07,10.71a63.43,63.43,0,0,0,8-.45h.26a1,1,0,0,1,1.1,1v2.33C563.4,351.59,563.14,352,562.11,352.17Z"/><path class="cls-1" d="M596.5,352.43h-3.1a1.3,1.3,0,0,1-1.29-1.3V329.9c0-6.45-2.71-8.45-6.9-8.45a25.13,25.13,0,0,0-8.91,1.81v27.87a1.34,1.34,0,0,1-1.29,1.3h-3.16a1.29,1.29,0,0,1-1.23-1.3V305.19a1.24,1.24,0,0,1,1.23-1.29h3.23a1.24,1.24,0,0,1,1.22,1.29v13.29a27.08,27.08,0,0,1,9.88-2c6.84,0,11.61,3.94,11.61,13.42v21.23A1.3,1.3,0,0,1,596.5,352.43Z"/><path class="cls-1" d="M618.91,352.88c-9.49,0-14.33-6.26-14.33-15.75v-4.9c0-9.49,4.84-15.75,14.33-15.75s14.39,6.26,14.39,15.75v4.9C633.3,346.62,628.39,352.88,618.91,352.88Zm8.71-20.65c0-6.58-2.65-10.78-8.71-10.78s-8.65,4.13-8.65,10.78v4.9c0,6.58,2.58,10.78,8.65,10.78s8.71-4.13,8.71-10.78Z"/><path class="cls-1" d="M653.93,352.88c-9.48,0-14.32-6.26-14.32-15.75v-4.9c0-9.49,4.84-15.75,14.32-15.75s14.39,6.26,14.39,15.75v4.9C668.32,346.62,663.42,352.88,653.93,352.88Zm8.71-20.65c0-6.58-2.64-10.78-8.71-10.78s-8.64,4.13-8.64,10.78v4.9c0,6.58,2.58,10.78,8.64,10.78s8.71-4.13,8.71-10.78Z"/><path class="cls-1" d="M679.5,352.43h-3.36a1.24,1.24,0,0,1-1.16-1.3v-46a1.18,1.18,0,0,1,1.16-1.23h3.36a1.18,1.18,0,0,1,1.16,1.23v46A1.23,1.23,0,0,1,679.5,352.43Z"/></svg>